<mxfile host="app.diagrams.net" modified="2023-12-25T13:02:18.602Z" agent="Mozilla/5.0 (Windows NT 10.0; Win64; x64) AppleWebKit/537.36 (KHTML, like Gecko) Chrome/120.0.0.0 Safari/537.36" version="21.8.0" etag="PiSTW8P-BgQn68e1UteH" type="github">
  <diagram name="第 1 页" id="CaycTTE4dkLUaQopOD3f">
    <mxGraphModel>
      <root>
        <mxCell id="0" />
        <mxCell id="1" parent="0" />
      </root>
    </mxGraphModel>
  </diagram>
</mxfile>
